<?xml version="1.0" encoding="utf-8"?>
<!-- Generator: Adobe Illustrator 25.0.0, SVG Export Plug-In . SVG Version: 6.00 Build 0)  -->
<svg version="1.1" xmlns="http://www.w3.org/2000/svg" xmlns:xlink="http://www.w3.org/1999/xlink" x="0px" y="0px"
	 viewBox="0 0 688 688" style="enable-background:new 0 0 688 688;" xml:space="preserve">
<style type="text/css">
	.st0{fill:#EFEFEF;}
	.st1{fill:#FFB6B6;}
	.st2{fill:#E1F3FF;}
	.st3{fill:none;stroke:#2E1B00;stroke-width:7;stroke-miterlimit:10;}
	.st4{fill:#C0D5E2;}
	.st5{fill:#9BC6EA;}
	.st6{stroke:#FF735C;stroke-width:4;stroke-miterlimit:10;}
	.st7{fill:#3D914F;}
	.st8{fill:#49A564;}
	.st9{fill:#CFFFD8;}
	.st10{fill:#FF8B74;}
	.st11{fill:none;stroke:#2E1B00;stroke-width:8;stroke-miterlimit:10;}
	.st12{fill:#E2D2C3;}
	.st13{fill:#DDC4A7;}
	.st14{fill:#FFFAF0;stroke:#2E1B00;stroke-width:7;stroke-miterlimit:10;}
	.st15{fill:#C69C6D;}
	.st16{fill:#31271B;stroke:#C69C6D;stroke-width:2;stroke-miterlimit:10;}
	.st17{fill:#FFFAF0;}
	.st18{fill:#E5DDCF;}
	.st19{fill:#E3C799;stroke:#2E1B00;stroke-width:7;stroke-miterlimit:10;}
	.st20{fill:#EDFFC7;stroke:#2E1B00;stroke-width:7;stroke-miterlimit:10;}
	.st21{fill:#DBD4CE;}
	.st22{fill:#E8DACA;}
	.st23{fill:#F5EDE2;}
	.st24{fill:#FFC639;}
	.st25{fill:#E5A423;}
	.st26{fill:#FFCD5B;}
</style>
<g id="Layer_1">
	<path class="st0" d="M618.76,553H138.38c-4.12,0-8.1-1.48-11.22-4.17l-47.14-40.64C67.96,497.79,75.32,478,91.24,478h480.37
		c4.12,0,8.1,1.48,11.22,4.17l47.14,40.64C642.04,533.21,634.68,553,618.76,553z"/>
	<path class="st1" d="M495.23,149H169.84c-14.11,0-25.55,11.44-25.55,25.55v43.13h116.15h13.49h246.85v-43.13
		C520.78,160.44,509.34,149,495.23,149z"/>
	<path class="st2" d="M260.44,217.68H144.29v268.78c0,14.11,11.44,25.55,25.55,25.55h325.39c14.11,0,25.55-11.44,25.55-25.55V217.68
		H273.93H260.44z M225.54,483.33c0,3.08-2.5,5.58-5.58,5.58h-37.89c-3.08,0-5.58-2.5-5.58-5.58v-37.89c0-3.08,2.5-5.58,5.58-5.58
		h37.89c3.08,0,5.58,2.5,5.58,5.58V483.33z M225.54,415.85c0,3.08-2.5,5.58-5.58,5.58h-37.89c-3.08,0-5.58-2.5-5.58-5.58v-37.89
		c0-3.08,2.5-5.58,5.58-5.58h37.89c3.08,0,5.58,2.5,5.58,5.58V415.85z M225.54,348.36c0,3.08-2.5,5.58-5.58,5.58h-37.89
		c-3.08,0-5.58-2.5-5.58-5.58v-37.89c0-3.08,2.5-5.58,5.58-5.58h37.89c3.08,0,5.58,2.5,5.58,5.58V348.36z M225.54,280.88
		c0,3.08-2.5,5.58-5.58,5.58h-37.89c-3.08,0-5.58-2.5-5.58-5.58v-37.89c0-3.08,2.5-5.58,5.58-5.58h37.89c3.08,0,5.58,2.5,5.58,5.58
		V280.88z M291.3,483.33c0,3.08-2.5,5.58-5.58,5.58h-37.89c-3.08,0-5.58-2.5-5.58-5.58v-37.89c0-3.08,2.5-5.58,5.58-5.58h37.89
		c3.08,0,5.58,2.5,5.58,5.58V483.33z M291.3,415.85c0,3.08-2.5,5.58-5.58,5.58h-37.89c-3.08,0-5.58-2.5-5.58-5.58v-37.89
		c0-3.08,2.5-5.58,5.58-5.58h37.89c3.08,0,5.58,2.5,5.58,5.58V415.85z M291.3,348.36c0,3.08-2.5,5.58-5.58,5.58h-37.89
		c-3.08,0-5.58-2.5-5.58-5.58v-37.89c0-3.08,2.5-5.58,5.58-5.58h37.89c3.08,0,5.58,2.5,5.58,5.58V348.36z M439.53,242.84
		c0-3.08,2.5-5.58,5.58-5.58h37.89c3.08,0,5.58,2.5,5.58,5.58v37.89c0,3.08-2.5,5.58-5.58,5.58h-37.89c-3.08,0-5.58-2.5-5.58-5.58
		V242.84z M439.53,310.32c0-3.08,2.5-5.58,5.58-5.58h37.89c3.08,0,5.58,2.5,5.58,5.58v37.89c0,3.08-2.5,5.58-5.58,5.58h-37.89
		c-3.08,0-5.58-2.5-5.58-5.58V310.32z M439.53,377.8c0-3.08,2.5-5.58,5.58-5.58h37.89c3.08,0,5.58,2.5,5.58,5.58v37.89
		c0,3.08-2.5,5.58-5.58,5.58h-37.89c-3.08,0-5.58-2.5-5.58-5.58V377.8z M439.53,445.29c0-3.08,2.5-5.58,5.58-5.58h37.89
		c3.08,0,5.58,2.5,5.58,5.58v37.89c0,3.08-2.5,5.58-5.58,5.58h-37.89c-3.08,0-5.58-2.5-5.58-5.58V445.29z M373.77,242.99
		c0-3.08,2.5-5.58,5.58-5.58h37.89c3.08,0,5.58,2.5,5.58,5.58v37.89c0,3.08-2.5,5.58-5.58,5.58h-37.89c-3.08,0-5.58-2.5-5.58-5.58
		V242.99z M373.77,310.47c0-3.08,2.5-5.58,5.58-5.58h37.89c3.08,0,5.58,2.5,5.58,5.58v37.89c0,3.08-2.5,5.58-5.58,5.58h-37.89
		c-3.08,0-5.58-2.5-5.58-5.58V310.47z M373.77,377.96c0-3.08,2.5-5.58,5.58-5.58h37.89c3.08,0,5.58,2.5,5.58,5.58v37.89
		c0,3.08-2.5,5.58-5.58,5.58h-37.89c-3.08,0-5.58-2.5-5.58-5.58V377.96z M373.77,445.44c0-3.08,2.5-5.58,5.58-5.58h37.89
		c3.08,0,5.58,2.5,5.58,5.58v37.89c0,3.08-2.5,5.58-5.58,5.58h-37.89c-3.08,0-5.58-2.5-5.58-5.58V445.44z M308.01,242.99
		c0-3.08,2.5-5.58,5.58-5.58h37.89c3.08,0,5.58,2.5,5.58,5.58v37.89c0,3.08-2.5,5.58-5.58,5.58h-37.89c-3.08,0-5.58-2.5-5.58-5.58
		V242.99z M308.01,310.47c0-3.08,2.5-5.58,5.58-5.58h37.89c3.08,0,5.58,2.5,5.58,5.58v37.89c0,3.08-2.5,5.58-5.58,5.58h-37.89
		c-3.08,0-5.58-2.5-5.58-5.58V310.47z M308.01,377.96c0-3.08,2.5-5.58,5.58-5.58h37.89c3.08,0,5.58,2.5,5.58,5.58v37.89
		c0,3.08-2.5,5.58-5.58,5.58h-37.89c-3.08,0-5.58-2.5-5.58-5.58V377.96z M308.01,445.44c0-3.08,2.5-5.58,5.58-5.58h37.89
		c3.08,0,5.58,2.5,5.58,5.58v37.89c0,3.08-2.5,5.58-5.58,5.58h-37.89c-3.08,0-5.58-2.5-5.58-5.58V445.44z M291.3,242.99v37.89
		c0,3.08-2.5,5.58-5.58,5.58h-37.89c-3.08,0-5.58-2.5-5.58-5.58v-37.89c0-3.08,2.5-5.58,5.58-5.58h37.89
		C288.8,237.41,291.3,239.91,291.3,242.99z"/>
	<path class="st3" d="M520.78,217.68v268.78c0,14.11-11.44,25.55-25.55,25.55H169.84c-14.11,0-25.55-11.44-25.55-25.55V217.68
		v-43.13c0-14.11,11.44-25.55,25.55-25.55h325.39c14.11,0,25.55,11.44,25.55,25.55V217.68z"/>
	<path class="st4" d="M219.95,237.41h-37.89c-3.08,0-5.58,2.5-5.58,5.58v37.89c0,3.08,2.5,5.58,5.58,5.58h37.89
		c3.08,0,5.58-2.5,5.58-5.58v-37.89C225.54,239.91,223.04,237.41,219.95,237.41z"/>
	<path class="st4" d="M242.25,242.99v37.89c0,3.08,2.5,5.58,5.58,5.58h37.89c3.08,0,5.58-2.5,5.58-5.58v-37.89
		c0-3.08-2.5-5.58-5.58-5.58h-37.89C244.75,237.41,242.25,239.91,242.25,242.99z"/>
	<path class="st5" d="M313.59,286.46h37.89c3.08,0,5.58-2.5,5.58-5.58v-37.89c0-3.08-2.5-5.58-5.58-5.58h-37.89
		c-3.08,0-5.58,2.5-5.58,5.58v37.89C308.01,283.96,310.51,286.46,313.59,286.46z"/>
	<path class="st5" d="M379.35,286.46h37.89c3.08,0,5.58-2.5,5.58-5.58v-37.89c0-3.08-2.5-5.58-5.58-5.58h-37.89
		c-3.08,0-5.58,2.5-5.58,5.58v37.89C373.77,283.96,376.27,286.46,379.35,286.46z"/>
	<path class="st5" d="M445.12,286.31h37.89c3.08,0,5.58-2.5,5.58-5.58v-37.89c0-3.08-2.5-5.58-5.58-5.58h-37.89
		c-3.08,0-5.58,2.5-5.58,5.58v37.89C439.53,283.81,442.03,286.31,445.12,286.31z"/>
	<path class="st5" d="M219.95,304.89h-37.89c-3.08,0-5.58,2.5-5.58,5.58v37.89c0,3.08,2.5,5.58,5.58,5.58h37.89
		c3.08,0,5.58-2.5,5.58-5.58v-37.89C225.54,307.39,223.04,304.89,219.95,304.89z"/>
	<path class="st5" d="M285.72,304.89h-37.89c-3.08,0-5.58,2.5-5.58,5.58v37.89c0,3.08,2.5,5.58,5.58,5.58h37.89
		c3.08,0,5.58-2.5,5.58-5.58v-37.89C291.3,307.39,288.8,304.89,285.72,304.89z"/>
	<path class="st5" d="M313.59,353.95h37.89c3.08,0,5.58-2.5,5.58-5.58v-37.89c0-3.08-2.5-5.58-5.58-5.58h-37.89
		c-3.08,0-5.58,2.5-5.58,5.58v37.89C308.01,351.45,310.51,353.95,313.59,353.95z"/>
	<path class="st5" d="M379.35,353.95h37.89c3.08,0,5.58-2.5,5.58-5.58v-37.89c0-3.08-2.5-5.58-5.58-5.58h-37.89
		c-3.08,0-5.58,2.5-5.58,5.58v37.89C373.77,351.45,376.27,353.95,379.35,353.95z"/>
	<path class="st5" d="M445.12,353.79h37.89c3.08,0,5.58-2.5,5.58-5.58v-37.89c0-3.08-2.5-5.58-5.58-5.58h-37.89
		c-3.08,0-5.58,2.5-5.58,5.58v37.89C439.53,351.29,442.03,353.79,445.12,353.79z"/>
	<path class="st5" d="M219.95,372.37h-37.89c-3.08,0-5.58,2.5-5.58,5.58v37.89c0,3.08,2.5,5.58,5.58,5.58h37.89
		c3.08,0,5.58-2.5,5.58-5.58v-37.89C225.54,374.87,223.04,372.37,219.95,372.37z"/>
	<path class="st5" d="M285.72,372.37h-37.89c-3.08,0-5.58,2.5-5.58,5.58v37.89c0,3.08,2.5,5.58,5.58,5.58h37.89
		c3.08,0,5.58-2.5,5.58-5.58v-37.89C291.3,374.87,288.8,372.37,285.72,372.37z"/>
	<path class="st5" d="M313.59,421.43h37.89c3.08,0,5.58-2.5,5.58-5.58v-37.89c0-3.08-2.5-5.58-5.58-5.58h-37.89
		c-3.08,0-5.58,2.5-5.58,5.58v37.89C308.01,418.93,310.51,421.43,313.59,421.43z"/>
	<path class="st5" d="M379.35,421.43h37.89c3.08,0,5.58-2.5,5.58-5.58v-37.89c0-3.08-2.5-5.58-5.58-5.58h-37.89
		c-3.08,0-5.58,2.5-5.58,5.58v37.89C373.77,418.93,376.27,421.43,379.35,421.43z"/>
	<path class="st5" d="M445.12,421.28h37.89c3.08,0,5.58-2.5,5.58-5.58V377.8c0-3.08-2.5-5.58-5.58-5.58h-37.89
		c-3.08,0-5.58,2.5-5.58,5.58v37.89C439.53,418.78,442.03,421.28,445.12,421.28z"/>
	<path class="st5" d="M219.95,439.86h-37.89c-3.08,0-5.58,2.5-5.58,5.58v37.89c0,3.08,2.5,5.58,5.58,5.58h37.89
		c3.08,0,5.58-2.5,5.58-5.58v-37.89C225.54,442.36,223.04,439.86,219.95,439.86z"/>
	<path class="st5" d="M285.72,439.86h-37.89c-3.08,0-5.58,2.5-5.58,5.58v37.89c0,3.08,2.5,5.58,5.58,5.58h37.89
		c3.08,0,5.58-2.5,5.58-5.58v-37.89C291.3,442.36,288.8,439.86,285.72,439.86z"/>
	<path class="st5" d="M313.59,488.91h37.89c3.08,0,5.58-2.5,5.58-5.58v-37.89c0-3.08-2.5-5.58-5.58-5.58h-37.89
		c-3.08,0-5.58,2.5-5.58,5.58v37.89C308.01,486.41,310.51,488.91,313.59,488.91z"/>
	<path class="st5" d="M379.35,488.91h37.89c3.08,0,5.58-2.5,5.58-5.58v-37.89c0-3.08-2.5-5.58-5.58-5.58h-37.89
		c-3.08,0-5.58,2.5-5.58,5.58v37.89C373.77,486.41,376.27,488.91,379.35,488.91z"/>
	<path class="st5" d="M445.12,488.76h37.89c3.08,0,5.58-2.5,5.58-5.58v-37.89c0-3.08-2.5-5.58-5.58-5.58h-37.89
		c-3.08,0-5.58,2.5-5.58,5.58v37.89C439.53,486.26,442.03,488.76,445.12,488.76z"/>
	<g>
		<path class="st6" d="M555.75,307.69c4.16-0.07,7.47-3.5,7.39-7.66c-0.18-10.03-7.79-14.92-7.79-14.92s-7.44,5.15-7.26,15.18
			C548.17,304.45,551.6,307.76,555.75,307.69z"/>
		<g>
			<path class="st7" d="M484.7,318.34c-10.46,31.23-10.55,66.15,2.18,99.3C515.98,493.43,601,531.29,676.8,502.2l-3.7-9.65
				C592.21,521.81,470.38,449.71,484.7,318.34z"/>
			<path class="st8" d="M484.7,318.34C470.38,449.71,592.21,521.81,673.1,492.55l-4.54-11.83c-63.93,24.54-135.66-7.39-160.2-71.33
				s7.39-135.66,71.33-160.2l-8.24-21.47C528.8,244.09,498.16,278.17,484.7,318.34z"/>
			<path class="st9" d="M508.35,409.4c24.54,63.93,96.27,95.87,160.2,71.33c-59.81,22.96-128.19-10.26-152.73-74.19
				c-24.54-63.93,4.05-134.38,63.86-157.33C515.75,273.74,483.81,345.46,508.35,409.4z"/>
			<path class="st10" d="M515.82,406.53c24.54,63.93,92.92,97.15,152.73,74.19L579.68,249.2
				C519.87,272.16,491.28,342.6,515.82,406.53z M546.99,405.85c0.07,4.16-3.24,7.58-7.39,7.66c-4.16,0.07-7.58-3.24-7.66-7.39
				c-0.18-10.03,7.26-15.18,7.26-15.18S546.82,395.82,546.99,405.85z M594.52,417.06c-4.16,0.07-7.58-3.24-7.66-7.39
				c-0.18-10.03,7.26-15.18,7.26-15.18s7.61,4.88,7.79,14.92C601.99,413.56,598.68,416.99,594.52,417.06z M631.54,455.87
				c0.07,4.16-3.24,7.58-7.39,7.66c-4.16,0.07-7.58-3.24-7.66-7.39c-0.18-10.03,7.26-15.18,7.26-15.18S631.36,445.84,631.54,455.87z
				 M548.1,300.3c-0.18-10.03,7.26-15.18,7.26-15.18s7.61,4.88,7.79,14.92c0.07,4.16-3.24,7.58-7.39,7.66S548.17,304.45,548.1,300.3
				z M563.21,361.98c-0.18-10.03,7.26-15.18,7.26-15.18s7.61,4.88,7.79,14.92c0.07,4.16-3.24,7.58-7.39,7.66
				C566.71,369.44,563.28,366.13,563.21,361.98z M582.51,442.56c0.07,4.16-3.24,7.58-7.39,7.66c-4.16,0.07-7.58-3.24-7.66-7.39
				c-0.18-10.03,7.26-15.18,7.26-15.18S582.33,432.53,582.51,442.56z M542.22,348.77c0.07,4.16-3.24,7.58-7.39,7.66
				c-4.16,0.07-7.58-3.24-7.66-7.39c-0.18-10.03,7.26-15.18,7.26-15.18S542.05,338.74,542.22,348.77z"/>
			<path class="st6" d="M616.49,456.14c0.07,4.16,3.5,7.47,7.66,7.39c4.16-0.07,7.47-3.5,7.39-7.66
				c-0.18-10.03-7.79-14.92-7.79-14.92S616.31,446.1,616.49,456.14z"/>
			<path class="st6" d="M567.46,442.82c0.07,4.16,3.5,7.47,7.66,7.39c4.16-0.07,7.47-3.5,7.39-7.66
				c-0.18-10.03-7.79-14.92-7.79-14.92S567.29,432.79,567.46,442.82z"/>
			<path class="st6" d="M601.92,409.4c-0.18-10.03-7.79-14.92-7.79-14.92s-7.44,5.15-7.26,15.18c0.07,4.16,3.5,7.47,7.66,7.39
				C598.68,416.99,601.99,413.56,601.92,409.4z"/>
			<path class="st6" d="M531.95,406.11c0.07,4.16,3.5,7.47,7.66,7.39c4.16-0.07,7.47-3.5,7.39-7.66
				c-0.18-10.03-7.79-14.92-7.79-14.92S531.77,396.08,531.95,406.11z"/>
			<path class="st6" d="M527.17,349.03c0.07,4.16,3.5,7.47,7.66,7.39c4.16-0.07,7.47-3.5,7.39-7.66
				c-0.18-10.03-7.79-14.92-7.79-14.92S527,339,527.17,349.03z"/>
			<path class="st6" d="M570.86,369.37c4.16-0.07,7.47-3.5,7.39-7.66c-0.18-10.03-7.79-14.92-7.79-14.92s-7.44,5.15-7.26,15.18
				C563.28,366.13,566.71,369.44,570.86,369.37z"/>
			<path class="st11" d="M579.68,249.2l88.88,231.53l4.54,11.83l3.7,9.65c-75.79,29.09-160.82-8.76-189.92-84.56
				c-12.73-33.15-12.64-68.07-2.18-99.3c13.46-40.17,44.09-74.25,86.73-90.61L579.68,249.2z"/>
		</g>
	</g>
	<g>
		<path class="st12" d="M89.41,319.11c1.27-1.48,2.47-2.91,3.61-4.29c-28.65,9.24-52.89,31.13-63.98,61.6
			C9.97,428.85,37,486.8,89.41,505.88l1.25-3.44C88.47,499.79,13.36,407.59,89.41,319.11z"/>
		<path class="st13" d="M93.03,314.83c-1.14,1.38-2.34,2.81-3.61,4.29c-76.06,88.48-0.94,180.67,1.25,183.33l20.98-57.64
			c-18.68-6.8-28.32-27.46-21.52-46.14c6.8-18.68,27.46-28.32,46.14-21.52l22.23-61.08C136.56,308.08,113.65,308.17,93.03,314.83z"
			/>
		<path class="st14" d="M99.87,363.6"/>
		<path class="st15" d="M218.87,445.52c19.08-52.42-7.95-110.37-60.36-129.45l-22.23,61.08c18.68,6.8,28.32,27.46,21.52,46.14
			c-6.8,18.68-27.46,28.32-46.14,21.52l-22.23,61.08C141.83,524.96,199.79,497.93,218.87,445.52z"/>
		<g>
			<g>
				<path class="st3" d="M158.09,315.74c-52.42-19.08-110.37,7.95-129.45,60.36S36.58,486.48,89,505.55
					c52.42,19.08,110.37-7.95,129.45-60.36S210.5,334.81,158.09,315.74z M111.23,444.47c-18.68-6.8-28.32-27.46-21.52-46.14
					c6.8-18.68,27.46-28.32,46.14-21.52c18.68,6.8,28.32,27.46,21.52,46.14C150.57,441.64,129.91,451.27,111.23,444.47z"/>
			</g>
		</g>
		<path class="st16" d="M125.33,326.7c-2.26-0.82-4.76,0.34-5.59,2.61c-1.99,5.46,1.11,9.68,1.11,9.68s5.09-1.24,7.08-6.7
			C128.76,330.03,127.59,327.52,125.33,326.7z"/>
		<path class="st16" d="M105.85,355.65c-2.26-0.82-4.76,0.34-5.59,2.61c-1.99,5.46,1.11,9.68,1.11,9.68s5.09-1.24,7.08-6.7
			C109.28,358.97,108.12,356.47,105.85,355.65z"/>
		<path class="st16" d="M88.85,331.65c-2.26-0.82-4.76,0.34-5.59,2.61c-1.99,5.46,1.11,9.68,1.11,9.68s5.09-1.24,7.08-6.7
			C92.28,334.97,91.12,332.47,88.85,331.65z"/>
		<path class="st16" d="M72.85,364.65c-2.26-0.82-4.76,0.34-5.59,2.61c-1.99,5.46,1.11,9.68,1.11,9.68s5.09-1.24,7.08-6.7
			C76.28,367.97,75.12,365.47,72.85,364.65z"/>
		<path class="st16" d="M67.85,405.65c-2.26-0.82-4.76,0.34-5.59,2.61c-1.99,5.46,1.11,9.68,1.11,9.68s5.09-1.24,7.08-6.7
			C71.28,408.97,70.12,406.47,67.85,405.65z"/>
		<path class="st16" d="M44.85,385.65c-2.26-0.82-4.76,0.34-5.59,2.61c-1.99,5.46,1.11,9.68,1.11,9.68s5.09-1.24,7.08-6.7
			C48.28,388.97,47.12,386.47,44.85,385.65z"/>
		<path class="st16" d="M49.85,435.65c-2.26-0.82-4.76,0.34-5.59,2.61c-1.99,5.46,1.11,9.68,1.11,9.68s5.09-1.24,7.08-6.7
			C53.28,438.97,52.12,436.47,49.85,435.65z"/>
		<path class="st16" d="M80.85,437.65c-2.26-0.82-4.76,0.34-5.59,2.61c-1.99,5.46,1.11,9.68,1.11,9.68s5.09-1.24,7.08-6.7
			C84.28,440.97,83.12,438.47,80.85,437.65z"/>
		<path class="st16" d="M80.85,473.65c-2.26-0.82-4.76,0.34-5.59,2.61c-1.99,5.46,1.11,9.68,1.11,9.68s5.09-1.24,7.08-6.7
			C84.28,476.97,83.12,474.47,80.85,473.65z"/>
	</g>
	<g>
		<path class="st17" d="M209.44,502.83C243.89,503.67,248,497,252,483l3.06-1.12l7.28-106.66H253h-87.11h-4.03
			c2.47,26.38,9.5,100.93,11.14,110.78C175,498,175,502,209.44,502.83z"/>
		<path class="st18" d="M165.32,503.61c0.32,4.72,4.25,8.39,8.98,8.39h70.3c4.73,0,8.65-3.66,8.97-8.38l1.48-21.73L252,483
			c-4,14-7,16-34,16c-34.45,0-33,0-35-12c-1.64-9.85-11.53-85.62-14-112l-12.44,0.22L165.32,503.61z"/>
		<path class="st3" d="M253,375.22h-87.11h-4.03h-5.3l8.76,128.39c0.32,4.72,4.25,8.39,8.98,8.39h70.3c4.73,0,8.65-3.66,8.97-8.38
			l1.48-21.73l7.28-106.66H253z"/>
		<path class="st14" d="M262.33,375.22h9.99c0.91,0,1.58-0.86,1.35-1.74l-3.02-11.93c-0.16-0.62-0.71-1.05-1.35-1.05H149.59
			c-0.64,0-1.2,0.43-1.35,1.05l-3.02,11.93c-0.22,0.88,0.44,1.74,1.35,1.74h9.99H262.33z"/>
		<path class="st14" d="M261.44,360.5v-6.58c0-1.49-1.21-2.69-2.69-2.69h-99.5c-1.49,0-2.69,1.21-2.69,2.69v6.58H261.44z"/>
		<polygon class="st19" points="163.32,474.33 255.57,474.33 260.34,404.41 158.55,404.41 		"/>
		<circle class="st20" cx="209" cy="439" r="17.5"/>
		<path class="st0" d="M172.67,276.1c3.31-0.87,5.84,2.88,3.84,5.66c-2.88,4-7.25,6.35-7.22,12.75c0.04,9.41,9.4,10.66,9.7,18.89
			c0.28,7.77-7.08,9.32-7.9,23.38c-0.09,1.57-1.17,2.91-2.69,3.31l-1.27,0.33c-2.48,0.65-4.85-1.41-4.52-3.96
			c1.51-11.69,7.91-13.51,7.65-20.78c-0.3-8.23-9.66-9.48-9.7-18.89c-0.04-8.65,7.94-9.91,9.46-17.82
			C170.3,277.59,171.31,276.46,172.67,276.1L172.67,276.1z"/>
		<path class="st0" d="M193.44,234.78c3.31-0.87,5.84,2.88,3.84,5.66c-2.88,4-7.25,6.35-7.22,12.75c0.04,9.41,9.4,10.66,9.7,18.89
			c0.28,7.77-7.08,9.32-7.9,23.38c-0.09,1.57-1.17,2.91-2.69,3.31l-1.27,0.33c-2.48,0.65-4.85-1.41-4.52-3.96
			c1.51-11.69,7.91-13.51,7.65-20.78c-0.3-8.23-9.66-9.48-9.7-18.89c-0.04-8.65,7.94-9.91,9.46-17.82
			C191.06,236.27,192.07,235.14,193.44,234.78L193.44,234.78z"/>
	</g>
	<g>
		<g>
			<path class="st21" d="M555.69,354.56c4.23,12.69,6.02,27.87,1.98,48.26c-8.85,44.61-43.13,85.58-73.87,93.57
				c-16.1,4.18-29.61,1.49-40.32-3.67c17.1,13.06,39.94,21.8,58.8,18.65c0,0,11.44,0.03,31.2-17.16
				c15.99-13.9,39.74-50.64,34.05-100.9C565.5,375.42,561.16,363.05,555.69,354.56z"/>
			<path class="st22" d="M483.79,496.38c30.74-7.99,65.02-48.96,73.87-93.57c4.05-20.38,2.26-35.56-1.98-48.26
				c-3.04-4.72-6.43-8.24-9.95-10.84c36.72,29.01-15.08,111.13-51.62,131.69c-36.47,20.53-61.5,5.11-68.21-0.6
				c4.42,6.35,10.5,12.49,17.57,17.9C454.18,497.87,467.7,500.56,483.79,496.38z"/>
			<path class="st23" d="M494.12,475.41c36.54-20.57,88.34-102.68,51.62-131.69c-9.95-7.34-21.02-7.32-28.54-6.13
				c-14.97,2.37-44.8,15.06-69.02,41.63c-24.22,26.58-33.84,51.98-29.56,78.97c0.87,5.46,3.46,11.12,7.29,16.62
				C432.62,480.53,457.65,495.94,494.12,475.41z M432.01,447.81c-1.26-5.44-1.43-11.72-0.12-18.87
				c5.99-32.52,48.38-45.66,67.01-32.62c6.03,4.22,10.76,9.09,13.51,16c2.37,5.96,3.26,13.42,2.22,23.3
				c-2.25,21.34-25.83,38.18-44.92,39.31C454.81,475.81,436.5,467.12,432.01,447.81z"/>
			<path class="st24" d="M470.83,460.34c28.23-5.65,34.38-26.28,41.58-48.01c-2.74-6.91-7.48-11.78-13.51-16
				c-18.63-13.04-61.02,0.09-67.01,32.62c-1.32,7.15-1.15,13.43,0.12,18.87C441.51,458.26,454.26,463.65,470.83,460.34z
				 M478.69,403.69c7.86,1.76,17.97,13.97,16.47,24.67c-1.5,10.7-8.61,20.74-19.84,24.11s-26.95,1.12-32.57-15.72
				C437.14,419.91,452.99,397.96,478.69,403.69z"/>
			<path class="st25" d="M469.71,474.94c19.09-1.12,42.68-17.97,44.92-39.31c1.04-9.88,0.15-17.35-2.22-23.3
				c-7.2,21.74-13.35,42.36-41.58,48.01c-16.56,3.31-29.32-2.07-38.82-12.53C436.5,467.12,454.81,475.81,469.71,474.94z"/>
			<path class="st26" d="M475.32,452.48c11.23-3.37,18.34-13.41,19.84-24.11c1.5-10.7-8.61-22.91-16.47-24.67
				c-25.7-5.74-41.55,16.21-35.94,33.06C448.37,453.6,464.09,455.84,475.32,452.48z"/>
		</g>
		<path class="st11" d="M533.48,494.19c-19.77,17.19-31.2,17.16-31.2,17.16c-18.85,3.15-41.7-5.59-58.8-18.65
			c-7.08-5.4-13.15-11.55-17.57-17.9c-3.83-5.5-6.42-11.16-7.29-16.62c-4.27-26.99,5.35-52.39,29.56-78.97
			c24.22-26.58,54.05-39.26,69.02-41.63c7.52-1.19,18.58-1.21,28.54,6.13c3.52,2.6,6.91,6.11,9.95,10.84
			c5.47,8.5,9.82,20.87,11.84,38.74C573.21,443.56,549.47,480.29,533.48,494.19z"/>
	</g>
</g>
<g id="Layer_2">
</g>
</svg>